<?xml version="1.0" encoding="utf-8"?>
<!-- Generator: Adobe Illustrator 24.3.0, SVG Export Plug-In . SVG Version: 6.00 Build 0)  -->
<svg version="1.1" id="Слой_1" xmlns="http://www.w3.org/2000/svg" xmlns:xlink="http://www.w3.org/1999/xlink" x="0px" y="0px"
	 viewBox="0 0 1024 1024" style="enable-background:new 0 0 1024 1024;" xml:space="preserve">
<style type="text/css">
	.st0{fill:#70FD00;}
	.st1{fill:#FDFE00;}
	.st2{fill:#00CFFC;}
	.st3{fill:#0F0F0F;}
	.st4{fill-rule:evenodd;clip-rule:evenodd;fill:#0F0F0F;}
	.st5{fill:none;stroke:#70FD00;stroke-width:24;stroke-miterlimit:10;}
</style>
<g>
	<path class="st0" d="M463.1,474.1c0,0,8-13.8,19.4-24C493.8,439.9,496,432,496,432l58.3-25.6l13.2,2.7l4.4,0.9l2.2,0.4
		c0,0,4.6,6.4,5.3,4.8c0.8-1.6,13.8-5.4,13.8-5.4l7.2,0.4l22.2-0.1l12.5,13.8l-3.6,24.9l-25.7,15.1L577.9,481L560,468.4l-39.9-4.5
		l-37,7.1L463.1,474.1z"/>
	<path class="st1" d="M449.7,501.2c0,0,46.2-42.9,120.3-13.7l-12.5,39.8l2.1,20.7c0,0-15.6-14.3-35.8-14.9c-20.3-0.6-51,0.4-51,0.4
		s-25-10.4-25-11.5C447.7,520.8,449.7,501.2,449.7,501.2z"/>
	<path class="st2" d="M452.4,487.5l-3,17.1l-1.4,14.6l22.3,16.9l52.2,2.3l17.5,9.6l-0.8,12.8h-92.5c-15.8,0-17.6-0.2-23-6.7
		c-7.3-9-24.3-29.9,13.7-55.8L452.4,487.5z"/>
	<path class="st1" d="M582.7,498.8c0,0-16.9,10.5-11.9,31.2c5,20.7,14.8,24.5,31.8,23.1c0,0-7.9-28.7-8.4-29.1
		C593.8,523.7,582.7,498.8,582.7,498.8z"/>
	<path class="st3" d="M615.5,557.2c-4.5-6.7-13-20.8-19.1-40.7c-1.2-4-2.3-8.4-3.4-14.2c-0.4-2.1-1.2-5.1-2.6-8.6
		c-2.1,1.5-4.3,2.6-6.4,4.1c-1.6,1.1-3.1,2.3-4.6,3.4c0.5,1.5,0.8,2.8,1,3.8c1.2,6.4,2.4,11.3,3.8,15.8c6.6,21.6,16,37.1,20.9,44.4
		c3.3,4.9,8.7,7.9,14.4,7.9h9.5v-13.8h-9.5C617.9,559.4,616.4,558.6,615.5,557.2z"/>
	<path class="st3" d="M640.3,422c-4.3-12.3-17.7-22.5-40-25.6l0,13.8c16.6,2.7,25.6,9.9,27.9,16.6c2.7,7.9-2.6,16.8-14,23.4
		c-8.1,4.7-15.5,9.2-22.2,13.7c0,0,0,0-0.1,0c-1.3,0.7-19.2,10.5-31.4,29.8c-0.1,0-0.2,0-0.2,0c-1.7,2.8-3.2,5.6-4.5,8.6
		c0,0,0,0.1-0.1,0.2c-1.8,4.3-3,8.7-3.7,13.3v0c-0.9,6.1-0.8,12.4,0.2,19.2c5,32.3,23.1,37.4,37.6,38.2v-13.8
		c-11.9-0.6-21.5-4.5-24.9-26.7c-1.4-9-0.6-16.8,2.2-24h0c0,0,0,0,0-0.1c0.4-1.1,0.9-2.1,1.4-3.1c2.5-4.8,9.3-14.7,25.9-26.8
		c7.3-5.2,15.9-10.5,25.8-16.3C637.6,452.4,645.4,436.6,640.3,422z"/>
	<path class="st3" d="M523.8,533c-3.3-0.2-7-0.2-11-0.3c-21.1-0.5-60.4-1.4-60.4-17.3c0-4.3,0.7-10.1,2.4-16.7
		c-5.2,2.5-10.3,5.3-14.8,9c-0.3,2.8-0.5,5.4-0.5,7.8c0,29.4,43.9,30.4,73,31.1c3.9,0.1,7.6,0.2,10.7,0.3c5.9,0.3,10.1,2,12.5,5.1
		c1.4,1.9,2.1,4.3,2.4,6.3H435.9c-6.6,0-11.6-3.2-15.1-9.9c-3.4-6.4-4-14.4-1.8-22c1.3-4.2,3.2-8.2,5.6-11.8
		c11.9-17.7,48.8-33.4,48.8-33.4c16.9-6.3,31.6-9,33.7-9.4c25.4-1.8,42.1,2.1,53,7.9c3.5-3,6.7-6.5,9.9-9.9c-11-7-27.2-12.2-51-12.2
		c-4.1,0-8.5,0.2-13.1,0.5l-0.5,0.1c-0.3,0-1.1,0.2-2.5,0.4h0c-3.1,0.6-8.7,1.8-15.8,3.7c0,0,0,0,0,0.1c-20.1,5.7-35,13-43.5,17.9
		c0,0-0.1,0-0.1-0.1c-2.2,1.3-4.4,2.7-6.6,4.2c-1,0.7-1.5,1.1-1.5,1.1l0,0c-13,9.2-24,21.2-28.6,36.7c-3.3,11.2-2.3,23.2,2.9,32.9
		c5.8,11,14.9,16.9,26.3,16.9h113.8l1-5.5c0.2-1.3,2.2-13.4-4.9-23C541.1,537,533.7,533.5,523.8,533L523.8,533z"/>
	<path class="st4" d="M568.1,410.4c2.6,5,7.5,8.4,13.2,8.4c8.3,0,15.1-7.2,15.1-16.2c0-8.9-6.8-16.2-15.1-16.2
		c-6.4,0-11.8,4.2-14,10.2c-6.1,0.8-12.6,1.9-19.4,3.6c-37.3,8.8-67.3,27.5-86.6,54.3c-2.2,3.1-4.3,6.2-6.1,9.4l1.3-0.6
		c1.6-0.8,3.3-1.6,4.9-2.3c3.6-1.5,7.4-2.7,11.2-3.8c1.5-0.5,3.1-0.9,4.6-1.4c15-17.5,38.2-33.8,73.4-42.1
		C556.8,412.2,562.7,411.2,568.1,410.4z M567.3,396.7c1.7-0.2,3.4-0.4,5-0.6v13.8l-0.4,0l-4.4-0.9c-0.8-2-1.2-4.1-1.2-6.4
		C566.2,400.5,566.6,398.5,567.3,396.7z M575.9,402.7c0-3.2,2.4-5.8,5.5-5.8c3,0,5.5,2.6,5.5,5.8c0,3.2-2.4,5.8-5.5,5.8
		C578.3,408.5,575.9,405.9,575.9,402.7z"/>
	<path class="st3" d="M572.3,409.9v-13.8c-1.6,0.2-3.3,0.3-5,0.6c-0.7,1.9-1.1,3.9-1.1,6c0,2.3,0.4,4.4,1.2,6.4l4.4,0.9L572.3,409.9
		z"/>
</g>
<path class="st2" d="M521.5,110.6L49.8,567.9h180.3v184.2c0,0,23.2-17.5,40.8,2.5h30V490.9H238l282.3-272.5l285.7,274.4h-63.5v260.6
	h29.5c0,0,22.1-18.8,41.4-3.1V569.8h183.4L521.5,110.6z"/>
<path class="st5" d="M250.8,800.8h73.1c0.7,0,1.4,0.4,1.8,0.9l27.7,42.4c0.9,1.3,3,1.2,3.7-0.2l43.8-85.2c0.8-1.5,3.3-1.4,3.9,0.2
	l50.9,127.4c0.7,1.7,3.5,1.6,4-0.2l62.5-231c0.5-1.9,3.6-1.9,4.1,0l59.9,243.4c0.5,1.9,3.4,2,4,0.2l52-145.5
	c0.6-1.7,3.2-1.8,3.9-0.1l39.4,86.8c0.6,1.4,2.8,1.6,3.7,0.3l28.9-41c0.4-0.5,1.1-0.9,1.8-0.9h75.9"/>
<circle class="st0" cx="246.7" cy="799.1" r="22.7"/>
<circle class="st0" cx="801.1" cy="799.1" r="22.7"/>
</svg>
