<?xml version="1.0" encoding="utf-8"?>
<!-- Generator: Adobe Illustrator 24.3.0, SVG Export Plug-In . SVG Version: 6.00 Build 0)  -->
<svg version="1.1" id="Слой_1" xmlns="http://www.w3.org/2000/svg" xmlns:xlink="http://www.w3.org/1999/xlink" x="0px" y="0px"
	 viewBox="0 0 2732 2732" style="enable-background:new 0 0 2732 2732;" xml:space="preserve">
<style type="text/css">
	.st0{display:none;}
	.st1{display:inline;fill:#70FD00;}
	.st2{display:inline;fill:#FDFE00;}
	.st3{display:inline;fill:#00CFFC;}
	.st4{display:inline;fill:#0F0F0F;}
	.st5{display:inline;fill-rule:evenodd;clip-rule:evenodd;fill:#0F0F0F;}
	.st6{display:inline;fill:#E6007E;}
	.st7{fill-rule:evenodd;clip-rule:evenodd;fill:#FDFE00;}
	.st8{fill:#05CCFF;}
	.st9{opacity:0.7;}
	.st10{fill:#70FD00;}
</style>
<g class="st0">
	<path class="st1" d="M1197.2,1349.9c0,0,22.5-38.8,54.2-67.3c31.8-28.5,37.9-50.6,37.9-50.6l163.2-71.8l37,7.5l12.4,2.5l6,1.2
		c0,0,12.8,17.9,15,13.4c2.2-4.5,38.8-15,38.8-15l20,1.2l62.1-0.2l35.1,38.6l-10,69.6l-72.1,42.2l-78.1,47.8l-50.1-35.4l-111.7-12.5
		l-103.7,20L1197.2,1349.9z"/>
	<path class="st2" d="M1159.7,1425.8c0,0,129.3-120.1,336.8-38.3l-35,111.4l6,57.9c0,0-43.6-40.1-100.4-41.8
		c-56.8-1.6-143,1.3-143,1.3s-70.1-29.1-70.1-32.3C1154.1,1480.7,1159.7,1425.8,1159.7,1425.8z"/>
	<path class="st3" d="M1167.1,1387.4l-8.4,48l-4,40.8l62.5,47.3l146.2,6.4l49.1,26.8l-2.3,35.8H1151c-44.3,0-49.4-0.5-64.3-18.8
		c-20.5-25.1-68-83.8,38.4-156.4L1167.1,1387.4z"/>
	<path class="st2" d="M1532.3,1419.1c0,0-47.3,29.4-33.2,87.3c14,57.9,41.6,68.6,89.1,64.8c0,0-22-80.4-23.5-81.4
		C1563.2,1488.7,1532.3,1419.1,1532.3,1419.1z"/>
	<path class="st4" d="M1624.2,1582.7c-12.6-18.7-36.4-58.3-53.5-113.9c-3.4-11.1-6.4-23.4-9.5-39.8c-1.1-6-3.3-14.4-7.2-24
		c-5.8,4.2-12.1,7.3-18,11.5c-4.5,3.2-8.6,6.6-13,9.5c1.4,4.2,2.3,7.9,2.9,10.8c3.4,17.9,6.7,31.5,10.6,44.1
		c18.6,60.5,44.7,104,58.6,124.5c9.4,13.8,24.5,22.1,40.4,22.1h26.6v-38.6h-26.6C1631,1588.9,1626.8,1586.6,1624.2,1582.7z"/>
	<path class="st4" d="M1693.7,1204.1c-12-34.4-49.6-62.9-111.9-71.7l0,38.7c46.5,7.5,71.6,27.7,78.1,46.4c7.7,22-7.3,47.1-39.1,65.6
		c-22.8,13.2-43.5,25.8-62.1,38.2c0,0-0.1,0-0.2,0.1c-3.5,1.9-53.8,29.5-88,83.4c-0.2,0-0.5-0.1-0.7-0.1c-4.9,7.8-9.1,15.8-12.5,24
		c-0.1,0.1-0.1,0.3-0.2,0.4c-5,12-8.4,24.4-10.3,37.3v0c-2.5,17-2.2,34.8,0.7,53.7c13.9,90.4,64.7,104.9,105.3,107.1v-38.6
		c-33.3-1.7-60.1-12.5-69.7-74.8c-3.9-25.3-1.8-47.2,6.2-67.2h0c0,0,0-0.1,0.1-0.2c1.1-3,2.4-5.9,3.9-8.8
		c7.1-13.5,26-41.1,72.4-75.1c20.5-14.6,44.6-29.4,72.3-45.5C1686,1289.2,1707.8,1244.9,1693.7,1204.1z"/>
	<path class="st4" d="M1367.2,1515c-9.3-0.4-19.7-0.6-30.8-0.9c-59.2-1.4-169.3-3.9-169.3-48.5c0-12,1.9-28.2,6.7-46.9
		c-14.7,7-29,14.7-41.4,25.1c-0.9,7.8-1.3,15.1-1.3,21.7c0,82.3,123.1,85.2,204.5,87.1c10.9,0.3,21.2,0.5,30.1,0.9
		c16.6,0.8,28.4,5.6,35,14.4c4,5.4,5.9,11.9,6.7,17.7h-286.3c-18.6,0-32.4-9.1-42.3-27.7c-9.5-18-11.3-40.4-5-61.5
		c3.5-11.9,8.9-22.9,15.7-33.1c33.2-49.7,136.7-93.6,136.7-93.6c47.3-17.7,88.4-25.3,94.3-26.4c71.2-5,117.8,5.9,148.4,22.1
		c9.8-8.5,18.8-18.1,27.8-27.7c-30.9-19.6-76.3-34.2-142.8-34.2c-11.6,0-23.7,0.4-36.6,1.4l-1.5,0.2c-0.8,0.1-3.2,0.5-6.9,1.2h0
		c-8.6,1.7-24.4,5-44.1,10.5c0,0.1,0,0.1,0,0.2c-56.4,15.9-98,36.5-121.8,50.2c-0.1-0.1-0.2-0.1-0.3-0.2
		c-6.2,3.7-12.4,7.6-18.4,11.7c-2.8,1.9-4.3,3-4.3,3l0,0.1c-36.5,25.8-67.3,59.4-80.2,102.9c-9.3,31.3-6.4,64.9,8,92.1
		c16.3,30.9,41.8,47.3,73.7,47.3h318.8l2.9-15.5c0.7-3.7,6.2-37.5-13.6-64.4C1415.8,1526,1394.9,1516.2,1367.2,1515L1367.2,1515z"/>
	<path class="st5" d="M1491.3,1171.6c7.2,14,21.1,23.5,37.1,23.5c23.3,0,42.3-20.3,42.3-45.3c0-25-19-45.3-42.3-45.3
		c-17.8,0-33.1,11.8-39.3,28.5c-17.1,2.2-35.2,5.5-54.4,10c-104.6,24.5-188.4,77.1-242.5,152.1c-6.3,8.7-12,17.5-17.1,26.2l3.6-1.7
		c4.6-2.2,9.2-4.3,13.8-6.3c10.2-4.3,20.8-7.5,31.4-10.8c4.3-1.3,8.6-2.6,12.9-4c41.9-49.1,106.9-94.7,205.6-117.9
		C1459.8,1176.6,1476.1,1173.6,1491.3,1171.6z M1489.1,1133.1c4.8-0.6,9.4-1.1,14-1.6v38.7l-1.2,0.1l-12.4-2.5
		c-2.2-5.5-3.5-11.6-3.5-18C1486.1,1143.9,1487.2,1138.3,1489.1,1133.1z M1513.1,1149.8c0-9,6.9-16.3,15.3-16.3
		c8.4,0,15.3,7.3,15.3,16.3s-6.9,16.3-15.3,16.3C1520,1166.2,1513.1,1158.8,1513.1,1149.8z"/>
	<path class="st4" d="M1503.2,1170.2v-38.7c-4.6,0.4-9.3,1-14,1.6c-1.9,5.2-3,10.8-3,16.7c0,6.4,1.2,12.4,3.5,18l12.4,2.5
		L1503.2,1170.2z"/>
</g>
<g class="st0">
	<path class="st6" d="M2896-380c-0.1,0-0.3,0-0.4,0c-8.8-0.2-16-6.9-16.8-15.7l-58.5-605.6l-100.8,426.8
		c-1.9,8.1-9.3,13.7-17.6,13.3c-8.3-0.3-15.2-6.5-16.4-14.7l-41.4-270.9l-83.8,311.9c-2.1,7.9-9.6,13.2-17.8,12.8
		c-8.2-0.5-15-6.7-16.1-14.8l-29.6-205.5l-71.1,263.9c-2.2,8.2-9.9,13.6-18.4,12.8c-8.4-0.8-15-7.5-15.7-15.9l-48.2-619.3
		l-49.5,380.3c-1.1,8.6-8.5,15.1-17.2,15.1h-399c-9.6,0-17.3-7.8-17.3-17.3v-185.8h-185.8c-9.6,0-17.3-7.8-17.3-17.3v-220.1H1310
		V-669c0,9.6-7.8,17.3-17.3,17.3c-9.6,0-17.3-7.8-17.3-17.3v-494.5c0-9.6,7.8-17.3,17.3-17.3h381.9c9.6,0,17.3,7.8,17.3,17.3v220.1
		h185.8c9.6,0,17.3,7.8,17.3,17.3v185.8h366.4l69-530.8c1.1-8.7,8.5-15.1,17.2-15.1c0.2,0,0.3,0,0.5,0c8.9,0.2,16.2,7.1,16.8,16
		l53.4,685.3l66.8-247.9c2.1-7.9,9.6-13.2,17.8-12.8c8.2,0.5,15,6.7,16.1,14.8l29.6,205.4l83.4-310.2c2.1-7.9,9.5-13.3,17.7-12.8
		c8.2,0.5,14.9,6.6,16.2,14.7l40.4,264.2l104.3-441.8c2-8.3,9.6-14,18.1-13.3c8.5,0.6,15.3,7.2,16.1,15.6l54.9,568.7l38-256.2
		c1.3-8.5,8.6-14.8,17.2-14.8h462.5V-1237c0-9.6,7.8-17.3,17.3-17.3h374.5c9.6,0,17.3,7.8,17.3,17.3v457.8c0,9.6-7.8,17.3-17.3,17.3
		c-9.6,0-17.3-7.8-17.3-17.3v-440.4h-339.8v425.7c0,9.6-7.8,17.3-17.3,17.3h-464.8l-56.6,381.8C2911.9-386.2,2904.6-380,2896-380z"
		/>
</g>
<g>
	<g>
		<path d="M281.4,1880.2l60.6,80.6v9.1h-30.4c-31.9-42.6-48.7-64.9-48.7-77.5h-50.2v77.5h-27.4v-179.4h27.4v77.5h50.2
			c0-12.7,16.7-35,48.7-77.5H342v9.1L281.4,1880.2z"/>
		<path d="M378.5,1842.2h57.8c30.4,0,62.3,0,62.3,31.9c0,10.6,0,24.3-24.3,30.4v3c24.3,6.1,24.3,19.8,24.3,30.4
			c0,31.9-31.9,31.9-62.3,31.9h-57.8V1842.2z M404.3,1863.5v33.5h42.6c22.8,0,22.8,0,22.8-16.7c0-16.7,0-16.7-22.8-16.7H404.3z
			 M404.3,1915.2v33.4h42.6c22.8,0,22.8,0,22.8-16.7c0-16.7,0-16.7-22.8-16.7H404.3z"/>
		<path d="M633.6,1955.8c-6.1,4.6-23.1,17.2-54.5,17.2c-45.6,0-45.6-24.3-45.6-36.5c0-19.8,0-41.1,63.9-41.1h33.4
			c0-31.9,0-31.9-33.4-31.9h-22.8l-24.3,6.1h-6.1v-24.3c24.3-6.1,44.1-6.1,53.2-6.1c59.3,0,59.3,30.4,59.3,60.8v21.3
			c0,25.1,0,25.1,9.1,37.3l-19.3,14.4L633.6,1955.8z M580.7,1948.7h13.7l36.5-9.1v-24.3h-33.4c-35,0-35,0-35,18.2
			C562.4,1948.7,562.4,1948.7,580.7,1948.7z"/>
		<path d="M830,1842.2v127.7h-25.8v-51.7h-74.5v51.7h-25.8v-127.7h25.8v51.7h74.5v-51.7H830z"/>
		<path d="M1087,1969.9h-25.8v-79.1c0-27.4,0-27.4-28.9-27.4l-36.5,9.1v97.3h-25.8v-79.1c0-27.4,0-27.4-28.9-27.4l-36.5,9.1v97.3
			h-25.8v-127.7h12.2l10.6,14.2c8.1-6.1,24.8-17.2,50.2-17.2c26.6,0,35,10.1,39.5,17.2c8.1-6.1,24.8-17.2,50.2-17.2
			c45.6,0,45.6,31.9,45.6,48.7V1969.9z"/>
		<path d="M1191.1,1790.5c52.5,139.9,52.5,139.9,52.5,155.1h9.1c0-15.2,0-15.2,52.5-155.1h52.5v179.4h-27.4v-155.1h-10.6
			c0,13.2,0,13.2-53.2,155.1h-36.5c-53.2-141.9-53.2-141.9-53.2-155.1h-10.6v155.1h-27.4v-179.4H1191.1z"/>
		<path d="M1489.9,1948.7l24.3-6.1h6.1v24.3c-24.3,6.1-42.6,6.1-53.2,6.1c-62.3,0-62.3-33.5-62.3-60.8V1900c0-24.3,0-60.8,56.3-60.8
			h12.2c56.3,0,56.3,36.5,56.3,60.8v12.2l-6.1,1.5c-13.7,3-19.8,3-56.3,3h-35c0,31.9,0,31.9,35,31.9H1489.9z M1502.1,1897
			c0-33.5,0-33.5-35-33.5c-35,0-35,0-35,33.5H1502.1z"/>
		<path d="M1617.6,1960.8c-51.7,0-51.7-33.4-51.7-57.8v-6.1c0-21.3,0-57.8,63.9-57.8c9.1,0,38.5,0,47.6,12.2l12.2-9.1h7.1v121.6
			c0,30.4,0,60.8-68.4,60.8c-6.1,0-24.3,0-48.7-6.1v-24.3h6.1l24.3,6.1h18.2c42.6,0,42.6,0,42.6-42.6v-12.2
			C1650.6,1960.8,1623.7,1960.8,1617.6,1960.8z M1634.4,1936.5l36.5-9.1v-60.8c-12.2-3-22.8-3-28.9-3c-48.7,0-48.7,0-48.7,36.5
			S1593.3,1936.5,1634.4,1936.5z"/>
		<path d="M1902,1790.5v179.4h-27.4v-155.1h-97.3v155.1h-27.4v-179.4H1902z"/>
		<path d="M2016.8,1942.6c0-8.6,0-8.6,25.8-77.5v-22.8h26.6c0,26.4,0,26.4-38,127.7l-9.9,26.4c-10.6,28.4-31.2,28.4-50.9,28.4h-3
			v-24.3h12.2c14.4,0,14.4,0,19-12.2l9.1-24.3h-28.1c-38-95-38-95-38-121.6h27.4v22.8c27.4,68.4,27.4,68.4,27.4,77.5H2016.8z"/>
		<path d="M2224.3,1842.2v127.7h-25.8V1865h-57.8v2c0,32.9,0,70.4-24.3,102.9h-30.4v-7.6c28.9-38.5,31.9-86.7,31.9-120.1H2224.3z"/>
		<path d="M2273,1969.9v-127.7h25.8v44.1c12.2-3,25.8-4.6,38-4.6c54.7,0,54.7,30.4,54.7,45.6c0,42.6-27.4,42.6-57.8,42.6H2273z
			 M2298.8,1906.1v42.6h38c27.4,0,27.4,0,27.4-21.3c0-21.3,0-21.3-27.4-21.3H2298.8z"/>
		<path d="M2425,1912.2V1900c0-27.4,0-60.8,56.3-60.8h12.2c53.2,0,53.2,30.4,53.2,42.6l-24.3,6.1c-6.1-24.3-6.1-24.3-35-24.3
			c-35,0-35,0-35,42.6c0,42.6,0,42.6,44.1,42.6h13.4l24.6-6.1h6.1v24.3c-24.3,6.1-44.1,6.1-53.2,6.1
			C2425,1973,2425,1939.5,2425,1912.2z"/>
	</g>
	<g>
		<polygon class="st7" points="276.4,832 276.4,832 276.4,802.7 246.8,802.7 246.8,782.1 276.4,782.1 276.4,752.9 296.2,752.9 
			296.2,782.1 325.9,782.1 325.9,802.7 296.2,802.7 296.2,832 		"/>
		<g>
			<path class="st8" d="M1711.2,1696.4c-0.1,0-0.3,0-0.4,0c-8.8-0.2-16-6.9-16.8-15.7l-58.5-605.6l-100.8,426.8
				c-1.9,8.1-9.3,13.7-17.6,13.3c-8.3-0.3-15.2-6.5-16.4-14.7l-41.4-270.9l-83.8,311.9c-2.1,7.9-9.6,13.2-17.8,12.8
				c-8.2-0.5-15-6.7-16.1-14.8l-29.6-205.5l-71.1,263.9c-2.2,8.2-9.9,13.6-18.4,12.8c-8.4-0.8-15-7.5-15.7-15.9l-48.2-619.3
				l-49.5,380.3c-1.1,8.6-8.5,15.1-17.2,15.1h-399c-9.6,0-17.3-7.8-17.3-17.3v-185.8H489.6c-9.6,0-17.3-7.8-17.3-17.3V930.2H125.1
				v477.1c0,9.6-7.8,17.3-17.3,17.3c-9.6,0-17.3-7.8-17.3-17.3V912.8c0-9.6,7.8-17.3,17.3-17.3h381.9c9.6,0,17.3,7.8,17.3,17.3
				v220.1h185.8c9.6,0,17.3,7.8,17.3,17.3v185.8h366.4l69-530.8c1.1-8.7,8.5-15.1,17.2-15.1c0.2,0,0.3,0,0.5,0
				c8.9,0.2,16.2,7.1,16.8,16l53.4,685.3l66.8-247.9c2.1-7.9,9.6-13.2,17.8-12.8c8.2,0.5,15,6.7,16.1,14.8l29.6,205.4l83.4-310.2
				c2.1-7.9,9.5-13.3,17.7-12.8c8.2,0.5,14.9,6.6,16.2,14.7l40.4,264.2l104.3-441.8c1.9-8.3,9.6-14,18.1-13.3
				c8.5,0.6,15.3,7.2,16.1,15.6l54.9,568.7l38-256.2c1.3-8.5,8.6-14.8,17.2-14.8h462.5V839.4c0-9.6,7.8-17.3,17.3-17.3h374.5
				c9.6,0,17.3,7.8,17.3,17.3v457.8c0,9.6-7.8,17.3-17.3,17.3c-9.6,0-17.3-7.8-17.3-17.3V856.7h-339.8v425.7
				c0,9.6-7.8,17.3-17.3,17.3h-464.8l-56.6,381.8C1727.1,1690.1,1719.7,1696.4,1711.2,1696.4z"/>
		</g>
		<g class="st9">
			<path class="st10" d="M269.3,1101.5h-95.5c-9.6,0-17.3-7.8-17.3-17.3v-95.5c0-9.6,7.8-17.3,17.3-17.3h95.5
				c9.6,0,17.3,7.8,17.3,17.3v95.5C286.7,1093.8,278.9,1101.5,269.3,1101.5z M191.2,1066.9H252v-60.8h-60.8V1066.9z"/>
		</g>
		<g class="st9">
			<path class="st10" d="M413.7,1101.5h-95.5c-9.6,0-17.3-7.8-17.3-17.3v-95.5c0-9.6,7.8-17.3,17.3-17.3h95.5
				c9.6,0,17.3,7.8,17.3,17.3v95.5C431.1,1093.8,423.3,1101.5,413.7,1101.5z M335.6,1066.9h60.8v-60.8h-60.8V1066.9z"/>
		</g>
		<g class="st9">
			<path class="st10" d="M269.3,1255.8h-95.5c-9.6,0-17.3-7.8-17.3-17.3v-95.5c0-9.6,7.8-17.3,17.3-17.3h95.5
				c9.6,0,17.3,7.8,17.3,17.3v95.5C286.7,1248,278.9,1255.8,269.3,1255.8z M191.2,1221.1H252v-60.8h-60.8V1221.1z"/>
		</g>
		<g class="st9">
			<path class="st10" d="M413.7,1255.8h-95.5c-9.6,0-17.3-7.8-17.3-17.3v-95.5c0-9.6,7.8-17.3,17.3-17.3h95.5
				c9.6,0,17.3,7.8,17.3,17.3v95.5C431.1,1248,423.3,1255.8,413.7,1255.8z M335.6,1221.1h60.8v-60.8h-60.8V1221.1z"/>
		</g>
		<g>
			<path class="st10" d="M358.8,877.5H213.9c-7,0-12.7-5.7-12.7-12.7V720c0-7,5.7-12.7,12.7-12.7h144.9c7,0,12.7,5.7,12.7,12.7
				v144.9C371.4,871.9,365.8,877.5,358.8,877.5z M226.6,852.2h119.5V732.7H226.6V852.2z"/>
		</g>
		<g class="st9">
			<path class="st10" d="M269.3,1405.5h-95.5c-9.6,0-17.3-7.8-17.3-17.3v-95.5c0-9.6,7.8-17.3,17.3-17.3h95.5
				c9.6,0,17.3,7.8,17.3,17.3v95.5C286.7,1397.7,278.9,1405.5,269.3,1405.5z M191.2,1370.8H252V1310h-60.8V1370.8z"/>
		</g>
		<g class="st9">
			<path class="st10" d="M413.7,1405.5h-95.5c-9.6,0-17.3-7.8-17.3-17.3v-95.5c0-9.6,7.8-17.3,17.3-17.3h95.5
				c9.6,0,17.3,7.8,17.3,17.3v95.5C431.1,1397.7,423.3,1405.5,413.7,1405.5z M335.6,1370.8h60.8V1310h-60.8V1370.8z"/>
		</g>
		<g>
			<g class="st9">
				<path class="st10" d="M2411.3,1008.5h-95.5c-9.6,0-17.3-7.8-17.3-17.3v-95.5c0-9.6,7.8-17.3,17.3-17.3h95.5
					c9.6,0,17.3,7.8,17.3,17.3v95.5C2428.6,1000.8,2420.9,1008.5,2411.3,1008.5z M2333.1,973.8h60.8v-60.8h-60.8V973.8z"/>
			</g>
			<g class="st9">
				<path class="st10" d="M2411.3,1162.7h-95.5c-9.6,0-17.3-7.8-17.3-17.3v-95.5c0-9.6,7.8-17.3,17.3-17.3h95.5
					c9.6,0,17.3,7.8,17.3,17.3v95.5C2428.6,1155,2420.9,1162.7,2411.3,1162.7z M2333.1,1128.1h60.8v-60.8h-60.8V1128.1z"/>
			</g>
			<g class="st9">
				<path class="st10" d="M2411.3,1312.4h-95.5c-9.6,0-17.3-7.8-17.3-17.3v-95.5c0-9.6,7.8-17.3,17.3-17.3h95.5
					c9.6,0,17.3,7.8,17.3,17.3v95.5C2428.6,1304.7,2420.9,1312.4,2411.3,1312.4z M2333.1,1277.7h60.8V1217h-60.8V1277.7z"/>
			</g>
			<g class="st9">
				<path class="st10" d="M2411.3,1461.8h-95.5c-9.6,0-17.3-7.8-17.3-17.3v-95.5c0-9.6,7.8-17.3,17.3-17.3h95.5
					c9.6,0,17.3,7.8,17.3,17.3v95.5C2428.6,1454,2420.9,1461.8,2411.3,1461.8z M2333.1,1427.1h60.8v-60.8h-60.8V1427.1z"/>
			</g>
		</g>
		<g>
			<g class="st9">
				<path class="st10" d="M2567.7,1008.5h-95.5c-9.6,0-17.3-7.8-17.3-17.3v-95.5c0-9.6,7.8-17.3,17.3-17.3h95.5
					c9.6,0,17.3,7.8,17.3,17.3v95.5C2585.1,1000.8,2577.3,1008.5,2567.7,1008.5z M2489.6,973.8h60.8v-60.8h-60.8V973.8z"/>
			</g>
			<g class="st9">
				<path class="st10" d="M2567.7,1162.7h-95.5c-9.6,0-17.3-7.8-17.3-17.3v-95.5c0-9.6,7.8-17.3,17.3-17.3h95.5
					c9.6,0,17.3,7.8,17.3,17.3v95.5C2585.1,1155,2577.3,1162.7,2567.7,1162.7z M2489.6,1128.1h60.8v-60.8h-60.8V1128.1z"/>
			</g>
			<g class="st9">
				<path class="st10" d="M2567.7,1312.4h-95.5c-9.6,0-17.3-7.8-17.3-17.3v-95.5c0-9.6,7.8-17.3,17.3-17.3h95.5
					c9.6,0,17.3,7.8,17.3,17.3v95.5C2585.1,1304.7,2577.3,1312.4,2567.7,1312.4z M2489.6,1277.7h60.8V1217h-60.8V1277.7z"/>
			</g>
			<g class="st9">
				<path class="st10" d="M2567.7,1461.8h-95.5c-9.6,0-17.3-7.8-17.3-17.3v-95.5c0-9.6,7.8-17.3,17.3-17.3h95.5
					c9.6,0,17.3,7.8,17.3,17.3v95.5C2585.1,1454,2577.3,1461.8,2567.7,1461.8z M2489.6,1427.1h60.8v-60.8h-60.8V1427.1z"/>
			</g>
		</g>
	</g>
</g>
</svg>
